# xmcd
#
# Track frame offsets: 
#        150
#        13185
#        25890
#        39245
#        52212
#        65220
#        78202
#        90612
#        102595
#        114885
#        127255
#        138695
#        151757
#        164170
#        178117
#        190877
#        201770
#        213295
#
# Disc length: 3010 seconds
#
# Revision: 1
# Processed by: cddbd v1.5PL3 Copyright (c) Steve Scherf et al.
# Submitted via: ExactAudioCopy v0.95a4
#
DISCID=070bc012
DTITLE=Various Artist - Ragged But Right: Great Country String Bands 
DTITLE=Of The 1930's
DYEAR=1988
DGENRE=Country
TTITLE0=Riley Puckett and Ted Hawkins/Ragged But Right
TTITLE1=Gid Tanner and His Skillet Lickers/Ida Red
TTITLE2=Gid Tanner and His Skillet Lickers/Soldier's Joy
TTITLE3=Gid Tanner and His Skillet Lickers/On Tanner's Farm
TTITLE4=Ted Hawkins and Riley Puckett/Hawkin's Rag
TTITLE5=Ted Hawkins and Riley Puckett/Tokio Rag
TTITLE6=Prairie Ramblers/Go Easy Blues
TTITLE7=Prairie Ramblers/Blue River
TTITLE8=Prairie Ramblers/Kentucky Blues
TTITLE9=Prairie Ramblers/Shady Grove My Darling
TTITLE10=Prairie Ramblers/Tex's Dance
TTITLE11=Patsy Montana With The Prairie Ramblers/Montana Plains
TTITLE12=J.E.Mainer's Mountaineers/Maple On The Hill
TTITLE13=J.E.Mainer's Mountaineers/Seven And A Half
TTITLE14=J.E.Mainer's Mountaineers/Johnson's Old Grey Mule
TTITLE15=Wade Mainer and Zeke Morris/Short Life And It's Trouble
TTITLE16=Wade Mainer and Zeke Morris/Riding On That Train Forty Five
TTITLE17=Wade Mainer and The Sons Of The Mountaineers/Mitchell Blues
EXTD=
EXTT0=
EXTT1=
EXTT2=
EXTT3=
EXTT4=
EXTT5=
EXTT6=
EXTT7=
EXTT8=
EXTT9=
EXTT10=
EXTT11=
EXTT12=
EXTT13=
EXTT14=
EXTT15=
EXTT16=
EXTT17=
PLAYORDER=
